<!-- icon666.com - MILLIONS vector ICONS FREE --><svg enable-background="new 0 0 16 16" viewBox="0 0 16 16" xmlns="http://www.w3.org/2000/svg"><g id="line" style="display:none;fill:none;stroke:#000;stroke-linecap:round;stroke-linejoin:round;stroke-miterlimit:10"><path d="m4.5 12-4-4 4-4" display="inline" opacity=".2"></path><path d="m10.5 8h-10" display="inline" opacity=".2"></path><path d="m15.5 8h-3" display="inline" opacity=".2"></path></g><g id="line_1_x2C_5" display="none"><g display="inline"><path d="m9.8 7.3h-7.2l2.2-2.3c.3-.3.3-.8 0-1.1s-.8-.2-1.1.1l-3.5 3.5c-.3.3-.3.8 0 1.1l3.5 3.4c.1.1.3.2.5.2s.4-.1.5-.2c.3-.3.3-.8 0-1.1l-2.1-2.1h7.2c.4 0 .8-.3.8-.8s-.4-.7-.8-.7z"></path><path d="m15.3 7.3h-2.5c-.5 0-.8.3-.8.7s.3.8.8.8h2.5c.4 0 .7-.4.7-.8s-.3-.7-.7-.7z"></path></g></g><g id="line_expanded" display="none"><path d="m10.5 7.5h-8.8l3.1-3.1c.2-.2.2-.6.1-.8s-.5-.2-.7 0l-4 4c-.2.2-.2.6-.1.8l4 4c.1.1.2.1.4.1s.3 0 .4-.1c.2-.2.2-.5 0-.7l-3.2-3.2h8.8c.3 0 .5-.2.5-.5s-.2-.5-.5-.5z" display="inline"></path><g display="inline"><path d="m15.5 8.5h-3c-.3 0-.5-.2-.5-.5s.2-.5.5-.5h3c.3 0 .5.2.5.5s-.2.5-.5.5z"></path></g></g><g id="solid"><path d="m15.5 7.5h-13.8l3.1-3.1c.2-.2.2-.6.1-.8s-.5-.2-.7 0l-4 4c-.2.2-.2.6-.1.8l4 4c.1.1.2.1.4.1s.3 0 .4-.1c.2-.2.2-.5 0-.7l-3.2-3.2h13.8c.3 0 .5-.2.5-.5s-.2-.5-.5-.5z"></path></g><g id="filled_line" display="none"><g display="inline"><path d="m1.6 9.1 2.9 2.9v-5.9z" fill="#f9c00c"></path><g fill="#3e3643"><path d="m10.5 7.5h-5.5v-3.5c0-.2-.1-.4-.3-.5s-.4 0-.5.1l-4 4c-.2.2-.2.6-.1.8l4 4c.1.1.2.1.4.1h.2c.2-.1.3-.3.3-.5v-3.5h5.5c.3 0 .5-.2.5-.5s-.2-.5-.5-.5zm-6.5 3.3-2.8-2.8 2.8-2.8z"></path><path d="m15.5 7.5h-3c-.3 0-.5.2-.5.5s.2.5.5.5h3c.3 0 .5-.2.5-.5s-.2-.5-.5-.5z"></path></g></g></g><g id="flat" display="none"><g display="inline"><path d="m15.5 7.5h-13.8l3.1-3.1c.2-.2.2-.6.1-.8s-.5-.2-.7 0l-4 4c-.2.2-.2.6-.1.8l4 4c.1.1.2.1.4.1s.3 0 .4-.1c.2-.2.2-.5 0-.7l-3.2-3.2h13.8c.3 0 .5-.2.5-.5s-.2-.5-.5-.5z" fill="#d32f2f"></path></g></g><g id="colored_line" display="none"><g display="inline"><path d="m10.5 7.5h-8.8l3.1-3.1c.2-.2.2-.6.1-.8s-.5-.2-.7 0l-4 4c-.2.2-.2.6-.1.8l4 4c.1.1.2.1.4.1s.3 0 .4-.1c.2-.2.2-.5 0-.7l-3.2-3.2h8.8c.3 0 .5-.2.5-.5s-.2-.5-.5-.5z" fill="#1689fc"></path><g><path d="m15.5 8.5h-3c-.3 0-.5-.2-.5-.5s.2-.5.5-.5h3c.3 0 .5.2.5.5s-.2.5-.5.5z" fill="#3e5959"></path></g></g></g><g id="duo_tone" display="none"><g display="inline"><path d="m10.5 7.5h-8.8l3.1-3.1c.2-.2.2-.6.1-.8s-.5-.2-.7 0l-4 4c-.2.2-.2.6-.1.8l4 4c.1.1.2.1.4.1s.3 0 .4-.1c.2-.2.2-.5 0-.7l-3.2-3.2h8.8c.3 0 .5-.2.5-.5s-.2-.5-.5-.5z" fill="#01a28e"></path><g><path d="m15.5 8.5h-3c-.3 0-.5-.2-.5-.5s.2-.5.5-.5h3c.3 0 .5.2.5.5s-.2.5-.5.5z" fill="#01a28e"></path></g></g></g></svg>